<?xml version="1.0" encoding="UTF-8"?>
<svg xmlns="http://www.w3.org/2000/svg" viewBox="0 0 1200 400" preserveAspectRatio="xMidYMid meet">
  <defs>
    <radialGradient id="goldGlow" cx="50%" cy="50%" r="50%">
      <stop offset="0%" stop-color="#e8b339" stop-opacity="0.10"/>
      <stop offset="100%" stop-color="#e8b339" stop-opacity="0"/>
    </radialGradient>
    <filter id="dotGlow" x="-300%" y="-300%" width="700%" height="700%">
      <feGaussianBlur stdDeviation="2.2"/>
    </filter>
  </defs>

  <!-- card -->
  <rect x="1" y="1" width="1198" height="398" rx="14" fill="#09090a" stroke="#ffffff14"/>
  <!-- soft gold bloom behind name -->
  <ellipse cx="192" cy="184" rx="380" ry="150" fill="url(#goldGlow)"/>

  <!-- top meta row -->
  <text x="72" y="62" font-family="ui-monospace,'JetBrains Mono','SF Mono',Menlo,Consolas,monospace" font-size="12.5" letter-spacing="2.5" fill="#ffffff80">MUMBAI, INDIA</text>
  <g>
    <circle cx="942" cy="58" r="4" fill="#34d058" filter="url(#dotGlow)"/>
    <circle cx="942" cy="58" r="4" fill="#34d058">
      <animate attributeName="opacity" values="1;0.35;1" dur="2.4s" repeatCount="indefinite"/>
    </circle>
    <text x="954" y="62" font-family="ui-monospace,'JetBrains Mono','SF Mono',Menlo,Consolas,monospace" font-size="12.5" letter-spacing="2.5" fill="#ffffff80">OPEN TO COLLABORATE</text>
  </g>
  <line x1="72" y1="84" x2="1128" y2="84" stroke="#ffffff14"/>

  <!-- vectorized display name (Instrument Serif) -->
  <g transform="translate(72,224)">
    <path d="M3.2640000000000002 0.0Q1.824 0.0 1.824 -1.056Q1.824 -1.92 3.072 -2.208L5.28 -2.592Q8.544 -3.168 8.544 -6.336V-62.784Q8.544 -64.8 7.92 -65.47200000000001Q7.296 -66.144 5.28 -66.528L3.072 -66.912Q1.824 -67.2 1.824 -68.06400000000001Q1.824 -69.12 3.2640000000000002 -69.12H22.656Q30.144000000000002 -69.12 35.616 -64.75200000000001Q41.088 -60.384 44.064 -52.512Q47.04 -44.64 47.04 -34.272Q47.04 -23.808 43.92 -16.128Q40.800000000000004 -8.448 35.136 -4.224Q29.472 0.0 21.696 0.0ZM22.080000000000002 -2.496Q30.624000000000002 -2.496 35.088 -10.655999999999999Q39.552 -18.816 39.552 -34.272Q39.552 -49.632 35.28 -58.128Q31.008 -66.624 22.656 -66.624Q15.36 -66.624 15.36 -59.616V-9.504Q15.36 -5.664 16.944 -4.08Q18.528 -2.496 22.080000000000002 -2.496ZM69.31200000000001 0.864Q64.70400000000001 0.864 61.056000000000004 -2.208Q57.408 -5.28 55.248000000000005 -10.896Q53.088 -16.512 53.088 -23.904Q53.088 -31.488 55.29600000000001 -37.248000000000005Q57.504000000000005 -43.008 61.344 -46.272000000000006Q65.184 -49.536 69.888 -49.536Q75.552 -49.536 79.05600000000001 -44.88Q82.56 -40.224000000000004 82.56 -29.76Q82.56 -26.592000000000002 80.16 -26.592000000000002H61.92Q60.0 -26.592000000000002 60.0 -24.384Q60.0 -14.208 62.976 -9.120000000000001Q65.952 -4.032 70.56 -4.032Q74.208 -4.032 76.512 -6.6240000000000006Q78.816 -9.216000000000001 80.256 -15.36Q80.54400000000001 -16.416 81.504 -16.416Q82.656 -16.416 82.368 -14.496Q80.83200000000001 -5.952 77.47200000000001 -2.544Q74.112 0.864 69.31200000000001 0.864ZM61.632000000000005 -28.992H71.328Q75.936 -28.992 75.936 -33.792Q75.936 -40.032000000000004 74.4 -43.584Q72.864 -47.136 69.792 -47.136Q66.048 -47.136 63.504000000000005 -42.816Q60.96 -38.496 60.192 -30.528000000000002Q60.0 -28.992 61.632000000000005 -28.992ZM103.39200000000001 0.864Q98.784 0.864 95.13600000000001 -2.208Q91.48800000000001 -5.28 89.328 -10.896Q87.168 -16.512 87.168 -23.904Q87.168 -31.488 89.376 -37.248000000000005Q91.584 -43.008 95.424 -46.272000000000006Q99.26400000000001 -49.536 103.968 -49.536Q109.632 -49.536 113.13600000000001 -44.88Q116.64000000000001 -40.224000000000004 116.64000000000001 -29.76Q116.64000000000001 -26.592000000000002 114.24000000000001 -26.592000000000002H96.00000000000001Q94.08000000000001 -26.592000000000002 94.08000000000001 -24.384Q94.08000000000001 -14.208 97.05600000000001 -9.120000000000001Q100.03200000000001 -4.032 104.64000000000001 -4.032Q108.28800000000001 -4.032 110.59200000000001 -6.6240000000000006Q112.89600000000002 -9.216000000000001 114.33600000000001 -15.36Q114.62400000000001 -16.416 115.584 -16.416Q116.736 -16.416 116.44800000000001 -14.496Q114.912 -5.952 111.552 -2.544Q108.19200000000001 0.864 103.39200000000001 0.864ZM95.712 -28.992H105.40800000000002Q110.016 -28.992 110.016 -33.792Q110.016 -40.032000000000004 108.48000000000002 -43.584Q106.94400000000002 -47.136 103.87200000000001 -47.136Q100.12800000000001 -47.136 97.584 -42.816Q95.04 -38.496 94.272 -30.528000000000002Q94.08000000000001 -28.992 95.712 -28.992ZM121.632 19.68Q120.19200000000001 19.68 120.19200000000001 18.624Q120.19200000000001 17.568 121.44000000000001 17.472L122.784 17.28Q124.80000000000001 16.992 125.424 16.128Q126.048 15.264000000000001 126.048 13.248000000000001V-38.688Q126.048 -40.416000000000004 125.52000000000001 -41.040000000000006Q124.992 -41.664 123.64800000000001 -41.856L121.632 -42.144Q120.384 -42.24 120.384 -43.2Q120.384 -43.968 121.92 -44.256Q124.896 -44.736000000000004 126.48000000000002 -45.792Q128.06400000000002 -46.848 129.792 -48.384Q130.656 -49.248 131.232 -49.248Q132.096 -49.248 132.096 -48.096000000000004V-45.12Q132.096 -44.448 132.67200000000003 -44.208Q133.24800000000002 -43.968 134.01600000000002 -44.736000000000004L135.072 -45.792Q136.99200000000002 -47.712 139.008 -48.624Q141.024 -49.536 143.616 -49.536Q148.032 -49.536 151.44 -46.608000000000004Q154.848 -43.68 156.816 -38.495999999999995Q158.784 -33.312 158.784 -26.304000000000002Q158.784 -18.336000000000002 156.288 -12.192Q153.792 -6.048 149.424 -2.592Q145.056 0.864 139.392 0.864Q136.512 0.864 134.304 -0.192Q132.576 -0.96 132.576 0.864V13.248000000000001Q132.576 15.264000000000001 133.2 15.984000000000002Q133.824 16.704 135.84 16.992L139.392 17.472Q140.448 17.664 140.448 18.528Q140.448 19.68 139.008 19.68ZM139.68 -1.536Q145.056 -1.536 148.368 -7.872Q151.68 -14.208 151.68 -24.96Q151.68 -34.848 148.8 -40.032Q145.92000000000002 -45.216 140.64000000000001 -45.216Q137.376 -45.216 134.976 -42.528000000000006Q132.576 -39.84 132.576 -35.04V-10.848Q132.576 -6.5280000000000005 134.54399999999998 -4.032Q136.512 -1.536 139.68 -1.536ZM175.776 0.864Q172.41600000000003 0.864 170.25600000000003 -1.488Q168.096 -3.84 168.096 -9.216000000000001V-45.12Q168.096 -46.272 166.94400000000002 -46.272H164.16000000000003Q162.62400000000002 -46.272 162.62400000000002 -47.424Q162.62400000000002 -48.192 163.48800000000003 -48.768Q166.656 -50.976 168.57600000000002 -53.519999999999996Q170.496 -56.064 171.936 -60.480000000000004Q172.608 -62.496 173.568 -62.496Q174.62400000000002 -62.496 174.62400000000002 -60.96V-50.304Q174.62400000000002 -48.96 175.96800000000002 -48.96H182.20800000000003Q183.74400000000003 -48.96 183.74400000000003 -47.616Q183.74400000000003 -46.272 182.20800000000003 -46.272H175.96800000000002Q174.62400000000002 -46.272 174.62400000000002 -44.928000000000004V-9.120000000000001Q174.62400000000002 -7.008 175.29600000000002 -5.808Q175.96800000000002 -4.6080000000000005 177.79200000000003 -4.6080000000000005Q179.80800000000002 -4.6080000000000005 181.104 -6.6240000000000006Q182.4 -8.64 182.78400000000002 -13.152000000000001Q182.97600000000003 -14.496 184.032 -14.496Q185.18400000000003 -14.496 185.18400000000003 -13.056000000000001Q184.89600000000002 -5.664 182.16000000000003 -2.4Q179.424 0.864 175.776 0.864ZM198.048 0.864Q194.016 0.864 191.42399999999998 -1.6800000000000002Q188.832 -4.224 188.832 -8.448Q188.832 -12.576 191.42399999999998 -16.272Q194.016 -19.968 198.528 -22.944000000000003Q203.04 -25.92 208.79999999999998 -27.744Q210.048 -28.128 210.048 -29.376V-38.112Q210.048 -42.72 208.608 -44.688Q207.168 -46.656 204.672 -46.656Q202.272 -46.656 200.30399999999997 -44.495999999999995Q198.33599999999998 -42.336 197.47199999999998 -37.248Q196.992 -34.176 195.408 -32.784Q193.82399999999998 -31.392 192.19199999999998 -31.392Q189.504 -31.392 189.504 -34.08Q189.504 -36.864000000000004 191.088 -39.6Q192.672 -42.336 195.264 -44.592Q197.856 -46.848 200.928 -48.192Q204.0 -49.536 207.072 -49.536Q216.576 -49.536 216.576 -38.496V-9.120000000000001Q216.576 -5.088 218.59199999999998 -5.088Q219.83999999999997 -5.088 220.896 -6.768000000000001Q221.952 -8.448 221.952 -12.48Q221.952 -14.016 223.2 -14.016Q224.35199999999998 -14.016 224.35199999999998 -12.384Q224.35199999999998 -5.376 221.904 -2.2560000000000002Q219.456 0.864 216.384 0.864Q214.07999999999998 0.864 212.736 -1.008Q211.392 -2.88 210.91199999999998 -5.472Q210.816 -6.432 210.096 -6.48Q209.37599999999998 -6.5280000000000005 208.704 -5.5680000000000005Q206.39999999999998 -2.4 204.0 -0.768Q201.6 0.864 198.048 0.864ZM200.64 -3.552Q203.136 -3.552 205.248 -5.328Q207.35999999999999 -7.104 208.704 -10.08Q210.048 -13.056000000000001 210.048 -16.8V-23.808Q210.048 -25.632 208.03199999999998 -24.864Q202.176 -22.752 198.95999999999998 -19.055999999999997Q195.744 -15.36 195.744 -10.176Q195.744 -3.552 200.64 -3.552ZM227.712 0.0Q226.272 0.0 226.272 -1.056Q226.272 -1.92 227.51999999999998 -2.208L228.672 -2.4Q230.688 -2.7840000000000003 231.312 -3.6000000000000005Q231.936 -4.416 231.936 -6.432V-38.688Q231.936 -40.416000000000004 231.40800000000002 -41.040000000000006Q230.88 -41.664 229.536 -41.856L227.51999999999998 -42.144Q226.272 -42.24 226.272 -43.2Q226.272 -43.968 227.808 -44.256Q230.784 -44.736000000000004 232.368 -45.792Q233.952 -46.848 235.68 -48.384Q236.54399999999998 -49.248 237.12 -49.248Q237.98399999999998 -49.248 237.98399999999998 -48.096000000000004V-43.776Q237.98399999999998 -42.912 238.608 -42.672Q239.232 -42.432 240.0 -43.2Q243.84 -46.848 246.768 -48.192Q249.696 -49.536 252.95999999999998 -49.536Q257.28 -49.536 259.87199999999996 -46.512Q262.464 -43.488 262.464 -37.632V-6.432Q262.464 -4.416 263.08799999999997 -3.6000000000000005Q263.712 -2.7840000000000003 265.728 -2.496L267.84 -2.208Q268.896 -2.016 268.896 -1.056Q268.896 0.0 267.74399999999997 0.0H251.61599999999999Q250.272 0.0 250.272 -1.056Q250.272 -2.016 251.328 -2.208L252.672 -2.4Q254.688 -2.688 255.31199999999998 -3.5520000000000005Q255.93599999999998 -4.416 255.93599999999998 -6.432V-36.576Q255.93599999999998 -41.28 254.20799999999997 -43.2Q252.48 -45.12 249.31199999999998 -45.12Q246.24 -45.12 243.792 -43.343999999999994Q241.344 -41.568 239.904 -38.64Q238.464 -35.712 238.464 -32.160000000000004V-6.432Q238.464 -4.416 239.088 -3.5520000000000005Q239.712 -2.688 241.728 -2.496L244.32 -2.208Q245.376 -2.016 245.376 -1.1520000000000001Q245.376 0.0 243.93599999999998 0.0ZM282.528 0.864Q280.32 0.864 277.82399999999996 0.33599999999999997Q275.328 -0.192 273.792 -0.96Q272.928 -1.44 272.928 -2.592L272.64 -13.344Q272.64 -14.976 273.888 -14.976Q274.944 -14.976 275.328 -13.44Q276.96 -6.6240000000000006 279.312 -4.128Q281.664 -1.6320000000000001 285.024 -1.6320000000000001Q287.808 -1.6320000000000001 289.632 -3.792Q291.456 -5.952 291.456 -9.792Q291.456 -13.632 289.344 -16.608Q287.23199999999997 -19.584 282.24 -23.136Q277.248 -26.496000000000002 274.94399999999996 -29.904Q272.64 -33.312 272.64 -37.344Q272.64 -42.816 276.48 -46.176Q280.32 -49.536 286.656 -49.536Q288.576 -49.536 290.4 -49.104Q292.224 -48.672000000000004 293.664 -47.712Q294.528 -47.136 294.528 -46.176L294.72 -35.616Q294.72 -34.176 293.568 -34.176Q292.896 -34.176 292.608 -34.608000000000004Q292.32 -35.04 292.128 -35.712Q290.20799999999997 -41.952 288.288 -44.4Q286.368 -46.848 283.584 -46.848Q281.088 -46.848 279.456 -45.120000000000005Q277.824 -43.392 277.824 -40.800000000000004Q277.824 -37.44 279.84000000000003 -34.944Q281.856 -32.448 287.136 -28.8Q291.936 -25.344 294.384 -21.36Q296.832 -17.376 296.832 -12.672Q296.832 -6.5280000000000005 292.89599999999996 -2.8320000000000003Q288.96 0.864 282.528 0.864ZM302.11199999999997 0.0Q300.96 0.0 300.96 -1.056Q300.96 -2.016 302.01599999999996 -2.208L303.35999999999996 -2.4Q305.376 -2.688 306.0 -3.5520000000000005Q306.62399999999997 -4.416 306.62399999999997 -6.432V-61.44Q306.62399999999997 -63.168 306.096 -63.792Q305.568 -64.416 304.224 -64.608L302.20799999999997 -64.896Q301.152 -65.08800000000001 301.152 -66.048Q301.152 -67.008 302.20799999999997 -67.2Q304.89599999999996 -67.776 306.71999999999997 -68.544Q308.544 -69.312 309.792 -70.08Q311.328 -71.04 312.096 -71.04Q313.152 -71.04 313.152 -69.504V-44.064Q313.152 -43.2 313.72799999999995 -43.056Q314.304 -42.912 315.168 -43.68Q318.816 -47.04 321.59999999999997 -48.288Q324.38399999999996 -49.536 327.45599999999996 -49.536Q331.96799999999996 -49.536 334.55999999999995 -46.512Q337.152 -43.488 337.152 -37.632V-6.432Q337.152 -4.416 337.77599999999995 -3.6000000000000005Q338.4 -2.7840000000000003 340.416 -2.496L342.52799999999996 -2.208Q343.584 -2.016 343.584 -1.056Q343.584 0.0 342.43199999999996 0.0H326.304Q324.96 0.0 324.96 -1.056Q324.96 -2.016 326.01599999999996 -2.208L327.35999999999996 -2.4Q329.376 -2.688 330.0 -3.5520000000000005Q330.62399999999997 -4.416 330.62399999999997 -6.432V-36.576Q330.62399999999997 -41.28 328.89599999999996 -43.2Q327.168 -45.12 324.0 -45.12Q320.928 -45.12 318.48 -43.343999999999994Q316.032 -41.568 314.592 -38.64Q313.152 -35.712 313.152 -32.160000000000004V-6.432Q313.152 -4.416 313.77599999999995 -3.5520000000000005Q314.4 -2.688 316.416 -2.496L319.008 -2.208Q320.06399999999996 -2.016 320.06399999999996 -1.056Q320.06399999999996 0.0 318.912 0.0ZM361.056 0.864Q358.656 0.864 356.448 -0.192Q354.24 -1.248 352.8 -3.552Q351.36 -5.856 351.36 -9.696V-43.104Q351.36 -44.832 350.832 -45.504000000000005Q350.304 -46.176 348.96 -46.272L347.328 -46.464Q345.69599999999997 -46.656 345.69599999999997 -47.712Q345.69599999999997 -48.96 347.52 -48.96H356.448Q357.888 -48.96 357.888 -47.52V-11.712Q357.888 -7.296 359.568 -5.424Q361.248 -3.552 364.224 -3.552Q367.2 -3.552 369.504 -5.232Q371.808 -6.912 373.2 -9.744Q374.592 -12.576 374.592 -15.936V-43.104Q374.592 -44.832 374.06399999999996 -45.504000000000005Q373.536 -46.176 372.192 -46.272L370.56 -46.464Q368.928 -46.656 368.928 -47.712Q368.928 -48.96 370.752 -48.96H379.68Q381.12 -48.96 381.12 -47.52V-10.272Q381.12 -8.544 381.648 -7.92Q382.176 -7.296 383.52 -7.104L385.536 -6.816Q386.784 -6.72 386.784 -5.856Q386.784 -4.992 385.248 -4.704Q382.272 -4.32 380.496 -3.168Q378.71999999999997 -2.016 377.376 -0.384Q376.512 0.48 375.936 0.48Q375.072 0.48 375.072 -0.672V-5.088Q375.072 -5.856 374.544 -6.0Q374.01599999999996 -6.144 373.44 -5.5680000000000005Q369.888 -2.016 367.152 -0.5760000000000001Q364.416 0.864 361.056 0.864ZM407.808 0.0Q406.368 0.0 406.368 -1.056Q406.368 -1.92 407.616 -2.208L409.82399999999996 -2.592Q411.84 -2.976 412.46399999999994 -3.648Q413.08799999999997 -4.32 413.08799999999997 -6.336V-62.784Q413.08799999999997 -64.8 412.46399999999994 -65.47200000000001Q411.84 -66.144 409.82399999999996 -66.528L407.616 -66.912Q406.368 -67.2 406.368 -68.06400000000001Q406.368 -69.12 407.808 -69.12H425.376Q426.816 -69.12 426.816 -67.968Q426.816 -67.104 425.76 -66.912L423.168 -66.528Q421.152 -66.24 420.528 -65.47200000000001Q419.904 -64.70400000000001 419.904 -62.688V-8.928Q419.904 -5.472 421.87199999999996 -3.936Q423.84 -2.4 426.816 -2.4Q429.024 -2.4 431.376 -3.3120000000000003Q433.728 -4.224 435.648 -6.768Q437.568 -9.312 438.52799999999996 -14.208L439.77599999999995 -20.64Q440.06399999999996 -21.888 441.216 -21.888Q442.56 -21.888 442.368 -20.256L441.216 -2.208Q441.024 0.0 438.816 0.0ZM455.712 0.864Q451.68 0.864 449.08799999999997 -1.6800000000000002Q446.496 -4.224 446.496 -8.448Q446.496 -12.576 449.08799999999997 -16.272Q451.68 -19.968 456.192 -22.944000000000003Q460.704 -25.92 466.464 -27.744Q467.712 -28.128 467.712 -29.376V-38.112Q467.712 -42.72 466.272 -44.688Q464.832 -46.656 462.336 -46.656Q459.93600000000004 -46.656 457.968 -44.495999999999995Q456.0 -42.336 455.136 -37.248Q454.656 -34.176 453.072 -32.784Q451.488 -31.392 449.856 -31.392Q447.168 -31.392 447.168 -34.08Q447.168 -36.864000000000004 448.752 -39.6Q450.336 -42.336 452.928 -44.592Q455.52 -46.848 458.592 -48.192Q461.664 -49.536 464.736 -49.536Q474.24 -49.536 474.24 -38.496V-9.120000000000001Q474.24 -5.088 476.25600000000003 -5.088Q477.504 -5.088 478.56 -6.768000000000001Q479.616 -8.448 479.616 -12.48Q479.616 -14.016 480.86400000000003 -14.016Q482.016 -14.016 482.016 -12.384Q482.016 -5.376 479.568 -2.2560000000000002Q477.12 0.864 474.048 0.864Q471.744 0.864 470.4 -1.008Q469.056 -2.88 468.576 -5.472Q468.48 -6.432 467.76 -6.48Q467.04 -6.5280000000000005 466.368 -5.5680000000000005Q464.064 -2.4 461.664 -0.768Q459.264 0.864 455.712 0.864ZM458.30400000000003 -3.552Q460.8 -3.552 462.91200000000003 -5.328Q465.024 -7.104 466.368 -10.08Q467.712 -13.056000000000001 467.712 -16.8V-23.808Q467.712 -25.632 465.696 -24.864Q459.84000000000003 -22.752 456.624 -19.055999999999997Q453.408 -15.36 453.408 -10.176Q453.408 -3.552 458.30400000000003 -3.552ZM484.41600000000005 0.0Q483.264 0.0 483.264 -1.056Q483.264 -2.016 484.32000000000005 -2.208L485.66400000000004 -2.4Q487.68000000000006 -2.688 488.64000000000004 -3.5520000000000005Q489.6 -4.416 489.6 -6.432V-61.44Q489.6 -63.168 489.072 -63.84Q488.54400000000004 -64.512 487.20000000000005 -64.608L484.992 -64.896Q483.93600000000004 -65.08800000000001 483.93600000000004 -66.048Q483.93600000000004 -67.008 484.992 -67.2Q487.68000000000006 -67.776 489.6 -68.544Q491.52000000000004 -69.312 492.76800000000003 -70.08Q494.30400000000003 -71.04 495.07200000000006 -71.04Q496.12800000000004 -71.04 496.12800000000004 -69.504V-6.432Q496.12800000000004 -4.416 496.75200000000007 -3.6000000000000005Q497.37600000000003 -2.7840000000000003 499.39200000000005 -2.496L501.6 -2.208Q502.65600000000006 -2.016 502.65600000000006 -1.056Q502.65600000000006 0.0 501.504 0.0Z" fill="#fafafa"/>
  </g>
  <!-- gold underline draws in once -->
  <line x1="72" y1="242" x2="580" y2="242" stroke="#e8b339" stroke-width="2">
    <animate attributeName="stroke-dashoffset" from="508" to="0" dur="1.1s" begin="0.2s" fill="freeze"/>
    <animate attributeName="stroke-dasharray" from="508 508" to="508 508" dur="0.01s" fill="freeze"/>
  </line>

  <!-- role line -->
  <text x="72" y="278" font-family="ui-monospace,'JetBrains Mono','SF Mono',Menlo,Consolas,monospace" font-size="16" letter-spacing="0.2" fill="#fafafa">Member of Technical Staff <tspan fill="#ffffff80">@</tspan> <tspan fill="#e8b339">Reelsaga Innovations</tspan></text>

  <!-- focus chips -->
  <g>
    <rect x="72" y="300" width="97" height="30" rx="15" fill="none" stroke="#ffffff1c"/>
    <text x="120" y="319" text-anchor="middle" font-family="ui-monospace,'JetBrains Mono','SF Mono',Menlo,Consolas,monospace" font-size="12.5" letter-spacing="0.3" fill="#ffffff9e">AI / LLMs</text>
  </g>
  <g>
    <rect x="179" y="300" width="104" height="30" rx="15" fill="none" stroke="#ffffff1c"/>
    <text x="231" y="319" text-anchor="middle" font-family="ui-monospace,'JetBrains Mono','SF Mono',Menlo,Consolas,monospace" font-size="12.5" letter-spacing="0.3" fill="#ffffff9e">Full-Stack</text>
  </g>
  <g>
    <rect x="293" y="300" width="126" height="30" rx="15" fill="none" stroke="#ffffff1c"/>
    <text x="356" y="319" text-anchor="middle" font-family="ui-monospace,'JetBrains Mono','SF Mono',Menlo,Consolas,monospace" font-size="12.5" letter-spacing="0.3" fill="#ffffff9e">0 → 1 Product</text>
  </g>
  <g>
    <rect x="428" y="300" width="104" height="30" rx="15" fill="none" stroke="#ffffff1c"/>
    <text x="480" y="319" text-anchor="middle" font-family="ui-monospace,'JetBrains Mono','SF Mono',Menlo,Consolas,monospace" font-size="12.5" letter-spacing="0.3" fill="#ffffff9e">Applied ML</text>
  </g>

  <!-- bottom meta -->
  <line x1="72" y1="356" x2="1128" y2="356" stroke="#ffffff14"/>
  <text x="72" y="380" font-family="ui-monospace,'JetBrains Mono','SF Mono',Menlo,Consolas,monospace" font-size="12.5" letter-spacing="0.3" fill="#ffffff80">AI + full-stack · taking products <tspan fill="#ffffff9e">0</tspan> <tspan fill="#e8b339">→</tspan> <tspan fill="#ffffff9e">1</tspan></text>
  <text x="1128" y="380" text-anchor="end" font-family="ui-monospace,'JetBrains Mono','SF Mono',Menlo,Consolas,monospace" font-size="12.5" letter-spacing="2" fill="#ffffff40">EST · 2004</text>
</svg>
