<?xml version="1.0" encoding="UTF-8"?>
<svg xmlns="http://www.w3.org/2000/svg" viewBox="0 0 1200 560" preserveAspectRatio="xMidYMid meet">
  <defs>
    <radialGradient id="goldGlow" cx="50%" cy="50%" r="50%">
      <stop offset="0%" stop-color="#e8b339" stop-opacity="0.10"/>
      <stop offset="100%" stop-color="#e8b339" stop-opacity="0"/>
    </radialGradient>
    <filter id="dotGlow" x="-300%" y="-300%" width="700%" height="700%"><feGaussianBlur stdDeviation="2.2"/></filter>
  </defs>
  <rect x="1" y="1" width="1198" height="558" rx="14" fill="#09090a" stroke="#ffffff14"/>
  <ellipse cx="192" cy="164" rx="380" ry="150" fill="url(#goldGlow)"/>

  <text x="72" y="58" font-family="ui-monospace,'JetBrains Mono','SF Mono',Menlo,Consolas,monospace" font-size="12.5" letter-spacing="2.5" fill="#ffffff80">MUMBAI, INDIA</text>
  <circle cx="942" cy="54" r="4" fill="#34d058" filter="url(#dotGlow)"/>
  <circle cx="942" cy="54" r="4" fill="#34d058"><animate attributeName="opacity" values="1;0.35;1" dur="2.4s" repeatCount="indefinite"/></circle>
  <text x="954" y="58" font-family="ui-monospace,'JetBrains Mono','SF Mono',Menlo,Consolas,monospace" font-size="12.5" letter-spacing="2.5" fill="#ffffff80">OPEN TO COLLABORATE</text>
  <line x1="72" y1="82" x2="1128" y2="82" stroke="#ffffff14"/>

  <g transform="translate(72,208)"><path d="M3.128 0.0Q1.748 0.0 1.748 -1.012Q1.748 -1.8399999999999999 2.944 -2.116L5.06 -2.484Q8.188 -3.036 8.188 -6.072V-60.168Q8.188 -62.1 7.59 -62.744Q6.992 -63.388 5.06 -63.756L2.944 -64.124Q1.748 -64.4 1.748 -65.228Q1.748 -66.24 3.128 -66.24H21.712Q28.887999999999998 -66.24 34.132 -62.054Q39.376 -57.868 42.227999999999994 -50.324Q45.08 -42.78 45.08 -32.844Q45.08 -22.816 42.09 -15.456Q39.1 -8.096 33.672 -4.048Q28.244 0.0 20.791999999999998 0.0ZM21.16 -2.392Q29.348 -2.392 33.626 -10.212Q37.903999999999996 -18.032 37.903999999999996 -32.844Q37.903999999999996 -47.564 33.81 -55.706Q29.716 -63.848 21.712 -63.848Q14.719999999999999 -63.848 14.719999999999999 -57.132V-9.108Q14.719999999999999 -5.428 16.238 -3.91Q17.756 -2.392 21.16 -2.392ZM66.424 0.828Q62.007999999999996 0.828 58.512 -2.1159999999999997Q55.016 -5.06 52.946 -10.442Q50.876 -15.824 50.876 -22.908Q50.876 -30.176 52.992 -35.696Q55.108 -41.216 58.788 -44.344Q62.467999999999996 -47.472 66.976 -47.472Q72.404 -47.472 75.762 -43.010000000000005Q79.12 -38.548 79.12 -28.52Q79.12 -25.483999999999998 76.82 -25.483999999999998H59.339999999999996Q57.5 -25.483999999999998 57.5 -23.368Q57.5 -13.616 60.352 -8.74Q63.20399999999999 -3.864 67.62 -3.864Q71.116 -3.864 73.324 -6.348000000000001Q75.532 -8.832 76.912 -14.719999999999999Q77.188 -15.732 78.108 -15.732Q79.21199999999999 -15.732 78.93599999999999 -13.892Q77.464 -5.704 74.244 -2.4379999999999997Q71.024 0.828 66.424 0.828ZM59.064 -27.784H68.356Q72.77199999999999 -27.784 72.77199999999999 -32.384Q72.77199999999999 -38.364 71.3 -41.768Q69.828 -45.172 66.884 -45.172Q63.296 -45.172 60.858000000000004 -41.032Q58.42 -36.891999999999996 57.684 -29.256Q57.5 -27.784 59.064 -27.784ZM99.084 0.828Q94.668 0.828 91.172 -2.1159999999999997Q87.676 -5.06 85.606 -10.442Q83.536 -15.824 83.536 -22.908Q83.536 -30.176 85.652 -35.696Q87.768 -41.216 91.44800000000001 -44.344Q95.128 -47.472 99.636 -47.472Q105.064 -47.472 108.422 -43.010000000000005Q111.78 -38.548 111.78 -28.52Q111.78 -25.483999999999998 109.48 -25.483999999999998H92.0Q90.16 -25.483999999999998 90.16 -23.368Q90.16 -13.616 93.012 -8.74Q95.864 -3.864 100.28 -3.864Q103.776 -3.864 105.98400000000001 -6.348000000000001Q108.19200000000001 -8.832 109.572 -14.719999999999999Q109.848 -15.732 110.768 -15.732Q111.872 -15.732 111.596 -13.892Q110.124 -5.704 106.904 -2.4379999999999997Q103.684 0.828 99.084 0.828ZM91.724 -27.784H101.016Q105.432 -27.784 105.432 -32.384Q105.432 -38.364 103.96000000000001 -41.768Q102.488 -45.172 99.544 -45.172Q95.956 -45.172 93.518 -41.032Q91.08 -36.891999999999996 90.344 -29.256Q90.16 -27.784 91.724 -27.784ZM116.564 18.86Q115.184 18.86 115.184 17.848Q115.184 16.836 116.38 16.744L117.66799999999999 16.56Q119.6 16.284 120.198 15.456Q120.79599999999999 14.628 120.79599999999999 12.696V-37.076Q120.79599999999999 -38.732 120.28999999999999 -39.33Q119.78399999999999 -39.928 118.496 -40.112L116.564 -40.388Q115.368 -40.48 115.368 -41.4Q115.368 -42.136 116.84 -42.412Q119.692 -42.872 121.21 -43.884Q122.728 -44.896 124.384 -46.368Q125.212 -47.196 125.764 -47.196Q126.592 -47.196 126.592 -46.092V-43.24Q126.592 -42.596 127.144 -42.366Q127.696 -42.136 128.432 -42.872L129.444 -43.884Q131.284 -45.724 133.216 -46.598Q135.148 -47.472 137.632 -47.472Q141.864 -47.472 145.13 -44.666Q148.39600000000002 -41.86 150.282 -36.891999999999996Q152.168 -31.924 152.168 -25.208Q152.168 -17.572 149.776 -11.684Q147.38400000000001 -5.796 143.198 -2.484Q139.012 0.828 133.584 0.828Q130.824 0.828 128.708 -0.184Q127.05199999999999 -0.9199999999999999 127.05199999999999 0.828V12.696Q127.05199999999999 14.628 127.64999999999999 15.318Q128.248 16.008 130.18 16.284L133.584 16.744Q134.596 16.928 134.596 17.756Q134.596 18.86 133.216 18.86ZM133.86 -1.472Q139.012 -1.472 142.186 -7.544Q145.36 -13.616 145.36 -23.919999999999998Q145.36 -33.396 142.60000000000002 -38.364000000000004Q139.84 -43.332 134.78 -43.332Q131.652 -43.332 129.35199999999998 -40.756Q127.05199999999999 -38.18 127.05199999999999 -33.58V-10.395999999999999Q127.05199999999999 -6.256 128.938 -3.864Q130.824 -1.472 133.86 -1.472ZM168.452 0.828Q165.232 0.828 163.16199999999998 -1.426Q161.09199999999998 -3.6799999999999997 161.09199999999998 -8.832V-43.24Q161.09199999999998 -44.344 159.988 -44.344H157.32Q155.84799999999998 -44.344 155.84799999999998 -45.448Q155.84799999999998 -46.184 156.676 -46.736Q159.712 -48.852 161.552 -51.29Q163.392 -53.728 164.772 -57.96Q165.416 -59.891999999999996 166.33599999999998 -59.891999999999996Q167.34799999999998 -59.891999999999996 167.34799999999998 -58.42V-48.208Q167.34799999999998 -46.92 168.636 -46.92H174.61599999999999Q176.088 -46.92 176.088 -45.632Q176.088 -44.344 174.61599999999999 -44.344H168.636Q167.34799999999998 -44.344 167.34799999999998 -43.056V-8.74Q167.34799999999998 -6.716 167.992 -5.566000000000001Q168.636 -4.416 170.384 -4.416Q172.316 -4.416 173.558 -6.348Q174.8 -8.28 175.168 -12.604Q175.352 -13.892 176.364 -13.892Q177.468 -13.892 177.468 -12.512Q177.192 -5.428 174.57 -2.3Q171.948 0.828 168.452 0.828ZM189.796 0.828Q185.932 0.828 183.44799999999998 -1.61Q180.964 -4.048 180.964 -8.096Q180.964 -12.052 183.44799999999998 -15.594Q185.932 -19.136 190.256 -21.988Q194.58 -24.84 200.1 -26.588Q201.296 -26.956 201.296 -28.152V-36.524Q201.296 -40.94 199.916 -42.82599999999999Q198.536 -44.711999999999996 196.144 -44.711999999999996Q193.844 -44.711999999999996 191.958 -42.641999999999996Q190.072 -40.572 189.244 -35.696Q188.784 -32.752 187.266 -31.418Q185.748 -30.084 184.184 -30.084Q181.608 -30.084 181.608 -32.66Q181.608 -35.328 183.126 -37.95Q184.644 -40.572 187.128 -42.734Q189.612 -44.896 192.55599999999998 -46.184Q195.5 -47.472 198.444 -47.472Q207.552 -47.472 207.552 -36.891999999999996V-8.74Q207.552 -4.876 209.484 -4.876Q210.68 -4.876 211.692 -6.486000000000001Q212.704 -8.096 212.704 -11.959999999999999Q212.704 -13.432 213.9 -13.432Q215.004 -13.432 215.004 -11.868Q215.004 -5.152 212.65800000000002 -2.162Q210.312 0.828 207.368 0.828Q205.16 0.828 203.872 -0.966Q202.584 -2.76 202.124 -5.244Q202.032 -6.164 201.34199999999998 -6.21Q200.652 -6.256 200.008 -5.336Q197.8 -2.3 195.5 -0.736Q193.2 0.828 189.796 0.828ZM192.28 -3.404Q194.672 -3.404 196.696 -5.106Q198.72 -6.808 200.00799999999998 -9.66Q201.296 -12.512 201.296 -16.1V-22.816Q201.296 -24.564 199.364 -23.828Q193.752 -21.804 190.67000000000002 -18.262Q187.588 -14.719999999999999 187.588 -9.752Q187.588 -3.404 192.28 -3.404ZM218.224 0.0Q216.844 0.0 216.844 -1.012Q216.844 -1.8399999999999999 218.04 -2.116L219.144 -2.3Q221.076 -2.668 221.67399999999998 -3.45Q222.272 -4.232 222.272 -6.164V-37.076Q222.272 -38.732 221.766 -39.33Q221.26 -39.928 219.972 -40.112L218.04 -40.388Q216.844 -40.48 216.844 -41.4Q216.844 -42.136 218.316 -42.412Q221.168 -42.872 222.686 -43.884Q224.204 -44.896 225.85999999999999 -46.368Q226.688 -47.196 227.24 -47.196Q228.06799999999998 -47.196 228.06799999999998 -46.092V-41.952Q228.06799999999998 -41.124 228.666 -40.894000000000005Q229.264 -40.664 230.0 -41.4Q233.68 -44.896 236.486 -46.184Q239.292 -47.472 242.42 -47.472Q246.56 -47.472 249.04399999999998 -44.574Q251.528 -41.676 251.528 -36.064V-6.164Q251.528 -4.232 252.12599999999998 -3.45Q252.724 -2.668 254.656 -2.392L256.68 -2.116Q257.692 -1.932 257.692 -1.012Q257.692 0.0 256.588 0.0H241.132Q239.844 0.0 239.844 -1.012Q239.844 -1.932 240.856 -2.116L242.144 -2.3Q244.076 -2.576 244.67399999999998 -3.404Q245.272 -4.232 245.272 -6.164V-35.052Q245.272 -39.56 243.61599999999999 -41.400000000000006Q241.96 -43.24 238.924 -43.24Q235.98 -43.24 233.63400000000001 -41.538Q231.288 -39.836 229.90800000000002 -37.03Q228.528 -34.224 228.528 -30.82V-6.164Q228.528 -4.232 229.12599999999998 -3.404Q229.724 -2.576 231.656 -2.392L234.14 -2.116Q235.152 -1.932 235.152 -1.104Q235.152 0.0 233.772 0.0ZM270.75600000000003 0.828Q268.64 0.828 266.248 0.32199999999999995Q263.856 -0.184 262.384 -0.9199999999999999Q261.556 -1.38 261.556 -2.484L261.28000000000003 -12.788Q261.28000000000003 -14.352 262.476 -14.352Q263.488 -14.352 263.856 -12.879999999999999Q265.42 -6.348 267.674 -3.956Q269.928 -1.564 273.148 -1.564Q275.81600000000003 -1.564 277.564 -3.634Q279.312 -5.704 279.312 -9.384Q279.312 -13.064 277.288 -15.916Q275.264 -18.768 270.48 -22.172Q265.696 -25.392 263.48800000000006 -28.658Q261.28000000000003 -31.924 261.28000000000003 -35.788Q261.28000000000003 -41.032 264.96000000000004 -44.251999999999995Q268.64 -47.472 274.712 -47.472Q276.552 -47.472 278.3 -47.058Q280.048 -46.644 281.428 -45.724Q282.25600000000003 -45.172 282.25600000000003 -44.252L282.44 -34.132Q282.44 -32.752 281.336 -32.752Q280.692 -32.752 280.416 -33.166Q280.14 -33.58 279.956 -34.224Q278.116 -40.204 276.276 -42.55Q274.43600000000004 -44.896 271.76800000000003 -44.896Q269.37600000000003 -44.896 267.812 -43.239999999999995Q266.248 -41.583999999999996 266.248 -39.1Q266.248 -35.88 268.18 -33.488Q270.112 -31.096 275.172 -27.599999999999998Q279.772 -24.288 282.118 -20.47Q284.464 -16.652 284.464 -12.144Q284.464 -6.256 280.692 -2.714Q276.92 0.828 270.75600000000003 0.828ZM289.524 0.0Q288.42 0.0 288.42 -1.012Q288.42 -1.932 289.432 -2.116L290.72 -2.3Q292.65200000000004 -2.576 293.25 -3.404Q293.848 -4.232 293.848 -6.164V-58.879999999999995Q293.848 -60.536 293.342 -61.134Q292.836 -61.732 291.548 -61.916L289.61600000000004 -62.192Q288.60400000000004 -62.376 288.60400000000004 -63.296Q288.60400000000004 -64.216 289.61600000000004 -64.4Q292.192 -64.952 293.94000000000005 -65.68799999999999Q295.68800000000005 -66.42399999999999 296.884 -67.16Q298.356 -68.08 299.09200000000004 -68.08Q300.10400000000004 -68.08 300.10400000000004 -66.608V-42.228Q300.10400000000004 -41.4 300.65600000000006 -41.262Q301.208 -41.124 302.036 -41.86Q305.53200000000004 -45.08 308.20000000000005 -46.275999999999996Q310.868 -47.472 313.812 -47.472Q318.136 -47.472 320.62 -44.574Q323.10400000000004 -41.676 323.10400000000004 -36.064V-6.164Q323.10400000000004 -4.232 323.702 -3.45Q324.3 -2.668 326.232 -2.392L328.25600000000003 -2.116Q329.26800000000003 -1.932 329.26800000000003 -1.012Q329.26800000000003 0.0 328.16400000000004 0.0H312.708Q311.42 0.0 311.42 -1.012Q311.42 -1.932 312.432 -2.116L313.72 -2.3Q315.65200000000004 -2.576 316.25 -3.404Q316.848 -4.232 316.848 -6.164V-35.052Q316.848 -39.56 315.192 -41.400000000000006Q313.536 -43.24 310.5 -43.24Q307.55600000000004 -43.24 305.21000000000004 -41.538Q302.86400000000003 -39.836 301.48400000000004 -37.03Q300.10400000000004 -34.224 300.10400000000004 -30.82V-6.164Q300.10400000000004 -4.232 300.702 -3.404Q301.3 -2.576 303.232 -2.392L305.716 -2.116Q306.728 -1.932 306.728 -1.012Q306.728 0.0 305.624 0.0ZM346.01199999999994 0.828Q343.712 0.828 341.596 -0.184Q339.47999999999996 -1.196 338.09999999999997 -3.404Q336.71999999999997 -5.612 336.71999999999997 -9.292V-41.308Q336.71999999999997 -42.964 336.21399999999994 -43.608000000000004Q335.70799999999997 -44.252 334.41999999999996 -44.344L332.856 -44.528Q331.292 -44.711999999999996 331.292 -45.724Q331.292 -46.92 333.03999999999996 -46.92H341.59599999999995Q342.976 -46.92 342.976 -45.54V-11.224Q342.976 -6.992 344.586 -5.198Q346.19599999999997 -3.404 349.048 -3.404Q351.9 -3.404 354.10799999999995 -5.013999999999999Q356.316 -6.624 357.65 -9.338Q358.984 -12.052 358.984 -15.272V-41.308Q358.984 -42.964 358.47799999999995 -43.608000000000004Q357.972 -44.252 356.68399999999997 -44.344L355.11999999999995 -44.528Q353.556 -44.711999999999996 353.556 -45.724Q353.556 -46.92 355.304 -46.92H363.85999999999996Q365.23999999999995 -46.92 365.23999999999995 -45.54V-9.844Q365.23999999999995 -8.188 365.746 -7.59Q366.25199999999995 -6.992 367.53999999999996 -6.808L369.472 -6.532Q370.66799999999995 -6.4399999999999995 370.66799999999995 -5.612Q370.66799999999995 -4.784 369.19599999999997 -4.508Q366.344 -4.14 364.64199999999994 -3.0359999999999996Q362.93999999999994 -1.932 361.652 -0.368Q360.82399999999996 0.45999999999999996 360.272 0.45999999999999996Q359.44399999999996 0.45999999999999996 359.44399999999996 -0.644V-4.876Q359.44399999999996 -5.612 358.938 -5.75Q358.43199999999996 -5.888 357.88 -5.336Q354.476 -1.932 351.854 -0.552Q349.23199999999997 0.828 346.01199999999994 0.828ZM390.816 0.0Q389.436 0.0 389.436 -1.012Q389.436 -1.8399999999999999 390.632 -2.116L392.748 -2.484Q394.68 -2.852 395.278 -3.4959999999999996Q395.876 -4.14 395.876 -6.072V-60.168Q395.876 -62.1 395.278 -62.744Q394.68 -63.388 392.748 -63.756L390.632 -64.124Q389.436 -64.4 389.436 -65.228Q389.436 -66.24 390.816 -66.24H407.652Q409.032 -66.24 409.032 -65.136Q409.032 -64.30799999999999 408.02 -64.124L405.536 -63.756Q403.604 -63.48 403.006 -62.744Q402.408 -62.007999999999996 402.408 -60.076V-8.556Q402.408 -5.244 404.294 -3.772Q406.18 -2.3 409.032 -2.3Q411.14799999999997 -2.3 413.402 -3.174Q415.656 -4.048 417.496 -6.486Q419.336 -8.924 420.256 -13.616L421.452 -19.78Q421.728 -20.976 422.832 -20.976Q424.12 -20.976 423.936 -19.412L422.832 -2.116Q422.64799999999997 0.0 420.532 0.0ZM436.724 0.828Q432.85999999999996 0.828 430.376 -1.61Q427.892 -4.048 427.892 -8.096Q427.892 -12.052 430.376 -15.594Q432.85999999999996 -19.136 437.18399999999997 -21.988Q441.508 -24.84 447.02799999999996 -26.588Q448.224 -26.956 448.224 -28.152V-36.524Q448.224 -40.94 446.84399999999994 -42.82599999999999Q445.46399999999994 -44.711999999999996 443.07199999999995 -44.711999999999996Q440.772 -44.711999999999996 438.88599999999997 -42.641999999999996Q436.99999999999994 -40.572 436.17199999999997 -35.696Q435.712 -32.752 434.19399999999996 -31.418Q432.676 -30.084 431.11199999999997 -30.084Q428.53599999999994 -30.084 428.53599999999994 -32.66Q428.53599999999994 -35.328 430.054 -37.95Q431.57199999999995 -40.572 434.0559999999999 -42.734Q436.53999999999996 -44.896 439.484 -46.184Q442.428 -47.472 445.37199999999996 -47.472Q454.47999999999996 -47.472 454.47999999999996 -36.891999999999996V-8.74Q454.47999999999996 -4.876 456.412 -4.876Q457.60799999999995 -4.876 458.61999999999995 -6.486000000000001Q459.63199999999995 -8.096 459.63199999999995 -11.959999999999999Q459.63199999999995 -13.432 460.828 -13.432Q461.93199999999996 -13.432 461.93199999999996 -11.868Q461.93199999999996 -5.152 459.58599999999996 -2.162Q457.23999999999995 0.828 454.296 0.828Q452.08799999999997 0.828 450.79999999999995 -0.966Q449.51199999999994 -2.76 449.05199999999996 -5.244Q448.96 -6.164 448.27 -6.21Q447.58 -6.256 446.936 -5.336Q444.72799999999995 -2.3 442.428 -0.736Q440.128 0.828 436.724 0.828ZM439.20799999999997 -3.404Q441.59999999999997 -3.404 443.62399999999997 -5.106Q445.64799999999997 -6.808 446.936 -9.66Q448.224 -12.512 448.224 -16.1V-22.816Q448.224 -24.564 446.292 -23.828Q440.67999999999995 -21.804 437.59799999999996 -18.262Q434.51599999999996 -14.719999999999999 434.51599999999996 -9.752Q434.51599999999996 -3.404 439.20799999999997 -3.404ZM464.23199999999997 0.0Q463.128 0.0 463.128 -1.012Q463.128 -1.932 464.14 -2.116L465.428 -2.3Q467.36 -2.576 468.28 -3.404Q469.2 -4.232 469.2 -6.164V-58.879999999999995Q469.2 -60.536 468.69399999999996 -61.18Q468.188 -61.824 466.9 -61.916L464.784 -62.192Q463.772 -62.376 463.772 -63.296Q463.772 -64.216 464.784 -64.4Q467.36 -64.952 469.20000000000005 -65.68799999999999Q471.04 -66.42399999999999 472.236 -67.16Q473.70799999999997 -68.08 474.444 -68.08Q475.456 -68.08 475.456 -66.608V-6.164Q475.456 -4.232 476.054 -3.45Q476.652 -2.668 478.584 -2.392L480.7 -2.116Q481.712 -1.932 481.712 -1.012Q481.712 0.0 480.608 0.0Z" fill="#fafafa"/></g>
  <line x1="72" y1="226" x2="559" y2="226" stroke="#e8b339" stroke-width="2"
        stroke-dasharray="487" stroke-dashoffset="487">
    <animate attributeName="stroke-dashoffset" from="487" to="0" dur="1.1s" begin="0.2s" fill="freeze"/>
  </line>

  <text x="72" y="262" font-family="ui-monospace,'JetBrains Mono','SF Mono',Menlo,Consolas,monospace" font-size="16" fill="#fafafa">Member of Technical Staff <tspan fill="#ffffff80">@</tspan> <tspan fill="#e8b339">Reelsaga Innovations</tspan></text>
  <rect x="72" y="286" width="95" height="30" rx="15" fill="none" stroke="#ffffff1c"/><text x="119" y="305" text-anchor="middle" font-family="ui-monospace,'JetBrains Mono','SF Mono',Menlo,Consolas,monospace" font-size="12.5" fill="#ffffff9e">AI / LLMs</text>
  <rect x="177" y="286" width="102" height="30" rx="15" fill="none" stroke="#ffffff1c"/><text x="228" y="305" text-anchor="middle" font-family="ui-monospace,'JetBrains Mono','SF Mono',Menlo,Consolas,monospace" font-size="12.5" fill="#ffffff9e">Full-Stack</text>
  <rect x="289" y="286" width="124" height="30" rx="15" fill="none" stroke="#ffffff1c"/><text x="351" y="305" text-anchor="middle" font-family="ui-monospace,'JetBrains Mono','SF Mono',Menlo,Consolas,monospace" font-size="12.5" fill="#ffffff9e">0 → 1 Product</text>
  <rect x="422" y="286" width="102" height="30" rx="15" fill="none" stroke="#ffffff1c"/><text x="473" y="305" text-anchor="middle" font-family="ui-monospace,'JetBrains Mono','SF Mono',Menlo,Consolas,monospace" font-size="12.5" fill="#ffffff9e">Applied ML</text>

  <line x1="72" y1="338" x2="1128" y2="338" stroke="#ffffff14"/>
  <text x="72" y="370" font-family="ui-monospace,'JetBrains Mono','SF Mono',Menlo,Consolas,monospace" font-size="11" letter-spacing="3" fill="#ffffff55">STACK</text>
  <text x="72" y="396" font-family="ui-monospace,'JetBrains Mono','SF Mono',Menlo,Consolas,monospace" font-size="13.5" fill="#ffffff80">frontend</text><text x="192" y="396" font-family="ui-monospace,'JetBrains Mono','SF Mono',Menlo,Consolas,monospace" font-size="13.5" fill="#ffffff9e">React · Next.js · TypeScript · Tailwind</text>
  <text x="72" y="421" font-family="ui-monospace,'JetBrains Mono','SF Mono',Menlo,Consolas,monospace" font-size="13.5" fill="#ffffff80">backend</text><text x="192" y="421" font-family="ui-monospace,'JetBrains Mono','SF Mono',Menlo,Consolas,monospace" font-size="13.5" fill="#ffffff9e">Node.js · Express · Python · FastAPI · Flask</text>
  <text x="72" y="446" font-family="ui-monospace,'JetBrains Mono','SF Mono',Menlo,Consolas,monospace" font-size="13.5" fill="#ffffff80">ml / ai</text><text x="192" y="446" font-family="ui-monospace,'JetBrains Mono','SF Mono',Menlo,Consolas,monospace" font-size="13.5" fill="#ffffff9e">PyTorch · XLM-RoBERTa · BERT · scikit-learn · spaCy</text>
  <text x="72" y="471" font-family="ui-monospace,'JetBrains Mono','SF Mono',Menlo,Consolas,monospace" font-size="13.5" fill="#ffffff80">infra</text><text x="192" y="471" font-family="ui-monospace,'JetBrains Mono','SF Mono',Menlo,Consolas,monospace" font-size="13.5" fill="#ffffff9e">AWS · Docker · Nginx · MongoDB · PostgreSQL · Redis</text>

  <line x1="72" y1="502" x2="1128" y2="502" stroke="#ffffff14"/>
  <text x="72" y="528" font-family="ui-monospace,'JetBrains Mono','SF Mono',Menlo,Consolas,monospace" font-size="12.5" fill="#ffffff80">AI + full-stack · taking products <tspan fill="#ffffff9e">0</tspan> <tspan fill="#e8b339">→</tspan> <tspan fill="#ffffff9e">1</tspan></text>
  <text x="1128" y="528" text-anchor="end" font-family="ui-monospace,'JetBrains Mono','SF Mono',Menlo,Consolas,monospace" font-size="12.5" letter-spacing="2" fill="#ffffff55">EST · 2004</text>
</svg>
